HIERARCHY
ROOT Hips
{
	OFFSET -3.958830 18.904000 13.208200
	CHANNELS 6 Xposition Yposition Zposition Zrotation Yrotation Xrotation 
	JOINT LHipJoint
	{
		OFFSET 0.000000 0.000000 0.000000
		CHANNELS 3 Zrotation Yrotation Xrotation
		JOINT LeftUpLeg
		{
			OFFSET 1.800000 -1.400000 0.085000
			CHANNELS 3 Zrotation Yrotation Xrotation
			JOINT LeftLeg
			{
				OFFSET 2.215000 -6.000000 0.000000
				CHANNELS 3 Zrotation Yrotation Xrotation
				JOINT LeftFoot
				{
					OFFSET 2.500000 -6.900000 0.000000
					CHANNELS 3 Zrotation Yrotation Xrotation
					JOINT LeftToeBase
					{
						OFFSET 0.200000 -0.500000 1.950000
						CHANNELS 3 Zrotation Yrotation Xrotation
						End Site
						{
							OFFSET 0.000000 0.000000 0.000000
						}
					}
				}
			}
		}
	}
	JOINT RHipJoint
	{
		OFFSET 0.000000 0.000000 0.000000
		CHANNELS 3 Zrotation Yrotation Xrotation
		JOINT RightUpLeg
		{
			OFFSET -1.800000 -1.400000 0.085000
			CHANNELS 3 Zrotation Yrotation Xrotation
			JOINT RightLeg
			{
				OFFSET -2.215000 -6.000000 0.000000
				CHANNELS 3 Zrotation Yrotation Xrotation
				JOINT RightFoot
				{
					OFFSET -2.500000 -6.900000 0.000000
					CHANNELS 3 Zrotation Yrotation Xrotation
					JOINT RightToeBase
					{
						OFFSET -0.200000 -0.500000 1.950000
						CHANNELS 3 Zrotation Yrotation Xrotation
						End Site
						{
							OFFSET 0.000000 0.000000 0.000000
						}
					}
				}
			}
		}
	}
	JOINT LowerBack
	{
		OFFSET 0.000000 0.000000 0.000000
		CHANNELS 3 Zrotation Yrotation Xrotation
		JOINT Spine
		{
			OFFSET -0.087000 1.940000 -0.288900
			CHANNELS 3 Zrotation Yrotation Xrotation
			JOINT Spine1
			{
				OFFSET 0.000000 1.950000 0.060000
				CHANNELS 3 Zrotation Yrotation Xrotation
				JOINT Neck
				{
					OFFSET 0.000000 0.000000 0.000000
					CHANNELS 3 Zrotation Yrotation Xrotation
					JOINT Neck1
					{
						OFFSET 0.000000 1.600000 0.340000
						CHANNELS 3 Zrotation Yrotation Xrotation
						JOINT Head
						{
							OFFSET 0.000000 1.667000 -0.240000
							CHANNELS 3 Zrotation Yrotation Xrotation
							End Site
							{
								OFFSET 0.000000 0.000000 0.000000
							}
						}
					}
				}
				JOINT LeftShoulder
				{
					OFFSET 0.000000 0.000000 0.000000
					CHANNELS 3 Zrotation Yrotation Xrotation
					JOINT LeftArm
					{
						OFFSET 2.700000 1.550000 -0.730000
						CHANNELS 3 Zrotation Yrotation Xrotation
						JOINT LeftForeArm
						{
							OFFSET 5.450000 0.000000 0.000000
							CHANNELS 3 Zrotation Yrotation Xrotation
							JOINT LeftHand
							{
								OFFSET 3.450000 0.000000 0.000000
								CHANNELS 3 Zrotation Yrotation Xrotation
								JOINT LeftHandIndex1
								{
									OFFSET 0.750000 0.000000 0.000000
									CHANNELS 3 Zrotation Yrotation Xrotation
									End Site
									{
										OFFSET 0.000000 0.000000 0.000000
									}
								}
							}
						}
					}
				}
				JOINT RightShoulder
				{
					OFFSET 0.000000 0.000000 0.000000
					CHANNELS 3 Zrotation Yrotation Xrotation
					JOINT RightArm
					{
						OFFSET -2.700000 1.550000 -0.730000
						CHANNELS 3 Zrotation Yrotation Xrotation
						JOINT RightForeArm
						{
							OFFSET -5.450000 0.000000 0.000000
							CHANNELS 3 Zrotation Yrotation Xrotation
							JOINT RightHand
							{
								OFFSET -3.450000 0.000000 0.000000
								CHANNELS 3 Zrotation Yrotation Xrotation
								JOINT RightHandIndex1
								{
									OFFSET -0.750000 0.000000 0.000000
									CHANNELS 3 Zrotation Yrotation Xrotation
									End Site
									{
										OFFSET 0.000000 0.000000 0.000000
									}
								}
							}
						}
					}
				}
			}
		}
	}
}
MOTION
Frames: 6
Frame Time: 0.016667
-1.654220 17.790640 -4.155460 -2.494644 1.135088 -2.334066 -14.447563 11.377189 3.599065 6.642393 -3.581228 -32.558261 -7.931215 4.280065 11.033779 -0.998515 3.103300 3.486605 0.865980 0.546220 0.516100 19.079296 -11.932050 2.697467 3.679069 1.732458 -9.891571 -0.621717 -5.123677 28.950975 -0.707714 -4.745142 2.742455 0.417970 0.258260 0.289400 -5.770783 2.418914 -7.837968 26.177389 -3.543937 26.477603 -18.245640 5.196358 16.182625 1.132527 -4.022993 -9.195452 -10.496249 -3.911092 36.064277 5.679660 -8.466660 -20.706940 13.006560 -32.953259 -2.982106 35.020605 -46.645528 -18.531892 28.469026 -20.235333 -6.261205 -3.779786 3.064150 0.604670 0.008400 0.072840 0.375510 -16.662969 34.147010 3.480343 -19.842896 20.030118 -13.219311 -40.735348 34.053423 -11.450807 2.175522 -1.942826 -0.132460 0.401570 -0.136450 -0.122160 
-1.635390 17.856430 -4.149680 -2.075555 2.582606 -2.272006 -14.477311 11.431628 3.656325 6.370292 -4.217313 -32.986787 -8.405673 5.239816 16.178811 -0.909249 3.623139 3.287664 0.797790 0.488660 0.437000 19.058073 -11.830327 2.716958 4.293155 2.491482 -12.369218 -2.080236 -4.906497 32.711914 -0.709035 -4.960582 2.675185 0.376090 0.308910 0.278810 -5.725809 2.168871 -7.803968 26.304628 -4.191900 26.315092 -18.894162 4.435270 16.037418 1.270464 -4.534591 -9.019484 -11.963954 -3.733777 36.618467 6.929680 -9.507760 -20.417820 10.124298 -31.992784 -2.267504 24.745289 -47.658674 -14.747522 38.529984 -28.970512 -11.086316 -3.756603 2.971577 0.579530 0.021660 0.041800 0.368130 -14.156753 32.966069 4.554551 -15.067021 19.760558 -13.610571 -51.844567 40.854276 -18.291311 1.997386 -1.761310 -0.136330 0.423110 -0.089520 -0.091460 
-1.622960 17.931270 -4.129170 -1.341363 4.755693 -2.429347 -14.509325 11.457794 3.649043 5.152544 -4.967908 -32.733335 -7.885305 6.033932 21.410961 -0.802019 4.155704 3.115925 0.814690 0.506840 0.422020 19.042643 -11.705844 2.774688 3.945416 3.767354 -15.851530 -2.193242 -5.355436 38.423037 -0.809221 -5.554542 2.475186 0.382260 0.339080 0.265150 -5.702328 1.990732 -7.793555 26.127649 -4.544900 26.107673 -19.163705 3.668986 16.385496 1.174396 -4.550085 -8.529844 -12.405280 -3.966968 37.101449 8.536300 -10.646430 -20.352420 7.295216 -30.323144 -2.092972 13.784505 -49.109197 -9.932754 48.032850 -39.501074 -18.091331 -3.654307 2.808513 0.560620 0.019030 0.026430 0.406570 -11.161239 30.680507 5.705456 -7.885322 19.950341 -13.221640 -67.795830 46.765553 -30.134032 1.738753 -1.469116 -0.132120 0.443680 -0.114220 -0.064790 
-1.621380 17.991520 -4.101260 -0.772506 7.617748 -2.071660 -14.579872 11.419978 3.667451 3.911391 -5.751793 -33.098614 -6.672273 6.718877 26.822073 -0.678677 4.811916 2.877587 0.765040 0.451240 0.360170 19.019335 -11.345775 2.973429 3.179315 5.729632 -21.035364 -0.966432 -6.848989 45.792775 -0.982478 -6.569103 2.134692 0.340570 0.367420 0.258100 -5.622511 1.598439 -7.908431 25.755965 -4.881459 25.790829 -19.212449 2.891591 16.075453 1.143625 -4.538729 -8.521759 -13.187748 -4.076657 38.344448 10.293450 -11.892020 -20.401610 5.044601 -27.876467 -2.243127 0.325987 -49.994192 -3.215649 56.817745 -49.005263 -26.773329 -3.545095 2.525458 0.559280 0.019190 0.003060 0.404760 -8.848037 27.852284 7.224896 0.529206 19.976178 -11.397298 -85.224354 49.961483 -45.865684 1.514649 -1.076947 -0.137230 0.444860 -0.083530 -0.049390 
-1.627690 18.020040 -4.085070 -0.178886 11.298564 -1.739926 -14.683838 11.336471 3.655122 2.356884 -6.607252 -33.392082 -4.801483 6.993723 31.741934 -0.624255 5.475230 2.632428 0.715040 0.368880 0.315850 18.994344 -10.808420 3.285079 1.845844 7.682062 -26.828945 0.943470 -9.497271 53.948289 -1.263013 -8.034874 1.641982 0.314420 0.394240 0.267330 -5.490913 1.014160 -8.068396 24.942634 -5.793776 25.682237 -18.823631 1.593468 16.109645 1.181690 -5.089350 -8.620603 -14.541180 -3.803847 38.283414 10.950780 -12.589110 -20.926940 3.219320 -24.693177 -2.195653 -13.375090 -49.845390 3.570098 67.660383 -57.150640 -38.587018 -3.415859 2.044882 0.591520 0.029610 -0.029620 0.379360 -6.979387 24.642574 8.438809 8.287510 20.202146 -8.561144 -101.481602 50.901132 -65.147246 1.488884 -0.926565 -0.175610 0.446880 -0.023570 -0.068010 
-1.647390 18.028770 -4.063080 0.245095 14.735481 -2.011623 -14.780889 11.337241 3.543104 1.263177 -7.079253 -32.572345 -2.760853 6.987100 35.600912 -0.479238 5.968428 2.469761 0.637770 0.270540 0.306520 18.955741 -10.314058 3.657408 0.497686 9.079576 -31.948190 2.512978 -12.799337 62.286443 -1.642180 -9.697558 1.139916 0.233410 0.385110 0.257970 -5.334195 0.414726 -8.269385 23.436394 -6.680236 26.581988 -17.967966 0.511763 16.370603 1.503576 -5.032275 -9.573672 -14.870317 -3.312076 39.257639 11.541660 -12.489870 -21.133820 1.021219 -22.508879 -1.052247 -23.443762 -48.404315 7.238365 78.143786 -63.992914 -51.837647 -3.249365 1.321799 0.609260 0.013120 -0.023880 0.338920 -5.066882 22.320306 9.848825 16.583977 18.617025 -6.695684 -118.594030 51.062332 -90.538603 1.713712 -1.273343 -0.183830 0.434330 0.000260 -0.078030 
